<?xml version="1.0" encoding="utf-8"?>
<svg version="1.1" id="Layer_1" xmlns="http://www.w3.org/2000/svg" xmlns:xlink="http://www.w3.org/1999/xlink" x="0px" y="0px"
	 viewBox="0 0 292 291.4" style="enable-background:new 0 0 292 291.4;" xml:space="preserve">
<path d="M252,208.6c-9.6,24.1-24.8,44-45.9,59.1c-19.9,14.2-42.2,21.9-66.6,23.4c-15.9,1-31.5-0.7-46.7-5.3
	c-63.6-19.2-103-83.1-90.6-148.6c8.3-43.8,33.6-75.1,73.5-94.8c13.7-6.7,28.3-10.4,43.5-11.9c1.6-0.2,1.4,0.6,1.4,1.6
	c0,24.1,0,48.3,0,72.4c0,23.8,0,47.6,0,71.3c0,10.3,9.9,17.6,19.7,14.7c18.8-5.6,37.6-11.1,56.4-16.7c21-6.2,41.9-12.4,62.8-18.7
	c1.2-0.4,1.7-0.4,1.7,1.2C261.8,174.5,258.7,191.9,252,208.6L252,208.6z M284.7,116c-4.1,1.3-8.2,2.5-12.3,3.8
	c-37,11.3-74,22.6-110.9,33.9c-3.5,1.1-7,2.1-10.6,3.2v-1.4c0-48.4,0-96.9,0-145.3c0-5.9,4.3-10.2,10.2-10.2c3.9,0,7.9,0.2,11.8,0.6
	c14.8,1.4,29,5.1,42.3,11.5c39.2,18.9,64.1,49.8,76.4,91.2C293.2,109,290.4,114.2,284.7,116L284.7,116z"/>
</svg>
