<?xml version="1.0" encoding="UTF-8"?>
<svg id="Layer_1" data-name="Layer 1" xmlns="http://www.w3.org/2000/svg" viewBox="0 0 544.22 544.22">
  <path style="fill: #6565c9;" d="m272.11,0C2.1,0,0,121.83,0,272.11s2.1,272.11,272.11,272.11,272.11-121.83,272.11-272.11S542.12,0,272.11,0Zm119.31,319.46c-9.6,24.09-24.75,43.96-45.87,59.08-19.9,14.25-42.19,21.86-66.6,23.42-15.89,1.02-31.46-.67-46.7-5.27-63.64-19.23-102.97-83.13-90.61-148.59,8.27-43.82,33.63-75.15,73.48-94.79,13.68-6.74,28.32-10.41,43.49-11.95,1.56-.16,1.41.61,1.41,1.61-.01,24.15,0,48.3,0,72.45,0,23.78-.03,47.57.01,71.35.02,10.28,9.9,17.64,19.72,14.73,18.79-5.56,37.58-11.15,56.37-16.72,20.95-6.21,41.89-12.42,62.83-18.66,1.2-.36,1.66-.37,1.7,1.16.54,18.04-2.56,35.44-9.23,52.18Zm32.64-92.6c-4.08,1.31-8.19,2.52-12.29,3.78-36.98,11.31-73.96,22.62-110.93,33.93-3.49,1.07-6.97,2.13-10.61,3.24v-1.43c0-48.45,0-96.9,0-145.34,0-5.89,4.33-10.16,10.24-10.19,3.93-.02,7.85.23,11.76.59,14.78,1.37,28.96,5.07,42.31,11.5,39.18,18.86,64.08,49.78,76.37,91.19,1.7,5.73-1.16,10.91-6.86,12.74Z"/>
</svg>